<svg width="194" height="194" viewBox="0 0 194 194" fill="none" xmlns="http://www.w3.org/2000/svg">
<mask id="mask0_11122_34" style="mask-type:alpha" maskUnits="userSpaceOnUse" x="0" y="0" width="194" height="194">
<rect width="194" height="194" fill="black"/>
</mask>
<g mask="url(#mask0_11122_34)">
<path d="M40.0718 86.8502C33.9828 86.8502 29.0345 91.7804 29.0345 97.8661C29.0345 103.952 33.9674 108.882 40.0718 108.882C46.1607 108.882 51.0936 103.952 51.0936 97.8661C51.109 91.7958 46.1607 86.8502 40.0718 86.8502ZM40.0718 103.089C37.1891 103.089 34.8615 100.763 34.8615 97.8815C34.8615 95.0004 37.1891 92.674 40.0718 92.674C42.9544 92.674 45.2821 95.0004 45.2821 97.8815C45.2821 100.747 42.9544 103.089 40.0718 103.089Z" fill="white"/>
<path d="M160.149 96.9252V98.8357C160.18 98.5276 160.196 98.204 160.196 97.8805C160.196 97.5569 160.165 97.2334 160.149 96.9252Z" fill="white"/>
<path d="M75.9865 96.6336V99.1141C76.0327 98.7135 76.0635 98.2976 76.0635 97.8816C76.0481 97.4656 76.0327 97.0496 75.9865 96.6336Z" fill="white"/>
<path d="M70.1937 77.0209V88.1448C68.6522 87.3282 66.8949 86.866 65.0297 86.866C58.9407 86.866 54.0079 91.7962 54.0079 97.882C54.0079 103.968 58.9407 108.898 65.0297 108.898C70.6408 108.898 75.2653 104.723 75.9744 99.2994C75.9744 99.2378 75.9898 99.1761 75.9898 99.1145V79.0238L70.1937 77.0209ZM65.0297 103.09C62.1471 103.09 59.8194 100.763 59.8194 97.882C59.8194 95.0009 62.1471 92.6744 65.0297 92.6744C67.6657 92.6744 69.8546 94.6465 70.1937 97.1886C70.2246 97.4197 70.24 97.6354 70.24 97.8665C70.24 98.0977 70.2246 98.3288 70.1937 98.5445C69.8546 101.117 67.6657 103.09 65.0297 103.09Z" fill="white"/>
<path d="M21.9961 100.748C21.0712 102.15 19.468 103.089 17.6491 103.089C14.7664 103.089 12.4388 100.763 12.4388 97.8819C12.4388 95.0008 14.7664 92.6744 17.6491 92.6744C19.4526 92.6744 21.0404 93.5834 21.9653 94.97L26.6823 91.5651C24.6938 88.7148 21.3795 86.8659 17.6491 86.8659C11.5601 86.8505 6.62726 91.7962 6.62726 97.8819C6.62726 103.968 11.5601 108.898 17.6491 108.898C21.4258 108.898 24.7554 107.003 26.744 104.106L21.9961 100.748Z" fill="white"/>
<path d="M70.2112 97.19C70.2421 97.4211 70.2575 97.6368 70.2575 97.8679C70.2575 98.099 70.2421 98.3301 70.2112 98.5458V97.19Z" fill="white"/>
<path d="M76.0019 99.1177V99.3026H75.9865C75.9865 99.241 76.0019 99.1794 76.0019 99.1177Z" fill="white"/>
<path d="M110.792 77.2054L104.781 79.3624V108.589H110.792V77.2054Z" fill="white"/>
<path d="M90.2174 86.9463C84.1284 86.9463 79.1956 91.8765 79.1956 97.9623C79.1956 104.048 84.1284 108.978 90.2174 108.978C93.4083 108.978 96.2909 107.622 98.2949 105.45L94.0558 101.46C93.1 102.492 91.7435 103.154 90.2174 103.154C88.4138 103.154 86.8261 102.245 85.9012 100.859H100.715C100.715 100.859 100.715 100.843 100.715 100.828H100.869C101.116 99.9035 101.255 98.9483 101.255 97.9469C101.255 91.8765 96.3064 86.9463 90.2174 86.9463ZM85.8703 95.112C86.7952 93.6945 88.3984 92.7547 90.2328 92.7547C92.0672 92.7547 93.655 93.6945 94.5799 95.112H85.8703Z" fill="white"/>
<path d="M125.278 86.9463C119.189 86.9463 114.257 91.8765 114.257 97.9623C114.257 104.048 119.189 108.978 125.278 108.978C128.469 108.978 131.352 107.622 133.356 105.45L129.117 101.46C128.161 102.492 126.805 103.154 125.278 103.154C123.475 103.154 121.887 102.245 120.962 100.859H135.776C135.776 100.859 135.776 100.843 135.776 100.828H135.93C136.177 99.9035 136.316 98.9483 136.316 97.9469C136.316 91.8765 131.367 86.9463 125.278 86.9463ZM120.931 95.112C121.856 93.6945 123.459 92.7547 125.294 92.7547C127.128 92.7547 128.716 93.6945 129.641 95.112H120.931Z" fill="white"/>
<path d="M154.371 86.6815V88.1605C152.814 87.3286 151.042 86.8509 149.161 86.8509C143.072 86.8509 138.139 91.7812 138.139 97.8669C138.139 103.953 143.072 108.883 149.161 108.883C151.042 108.883 152.814 108.405 154.371 107.573V108.683H160.152V86.6815H154.371ZM149.161 103.09C146.278 103.09 143.951 100.763 143.951 97.8823C143.951 95.0012 146.278 92.6748 149.161 92.6748C152.044 92.6748 154.371 95.0012 154.371 97.8823C154.371 100.748 152.044 103.09 149.161 103.09Z" fill="white"/>
<path d="M175.963 86.8502C169.997 86.8502 165.126 91.5955 164.941 97.5118C164.941 97.635 164.941 97.7583 164.941 97.8815V114.336L170.86 116.339V107.65C172.386 108.451 174.128 108.898 175.978 108.898C182.067 108.898 187 103.967 187 97.8815C186.985 91.7958 182.052 86.8502 175.963 86.8502ZM175.963 103.089C173.419 103.089 171.307 101.271 170.845 98.8676C170.783 98.544 170.752 98.2205 170.752 97.8815C170.752 97.7583 170.752 97.635 170.768 97.5118C170.953 94.8156 173.203 92.674 175.963 92.674C178.845 92.674 181.173 95.0004 181.173 97.8815C181.173 100.747 178.845 103.089 175.963 103.089Z" fill="white"/>
</g>
</svg>
